<?xml version="1.0" encoding="utf-8"?>
<!-- Generator: Adobe Illustrator 16.0.0, SVG Export Plug-In . SVG Version: 6.00 Build 0)  -->
<!DOCTYPE svg PUBLIC "-//W3C//DTD SVG 1.1//EN" "http://www.w3.org/Graphics/SVG/1.1/DTD/svg11.dtd">
<svg version="1.1" id="Layer_1" xmlns="http://www.w3.org/2000/svg" xmlns:xlink="http://www.w3.org/1999/xlink" x="0px" y="0px"
	 width="256px" height="256px" viewBox="0 0 256 256" enable-background="new 0 0 256 256" xml:space="preserve">
<path d="M226,14H30c-8.837,0-16,7.164-16,16v196c0,8.837,7.163,16,16,16h196c8.836,0,16-7.163,16-16V30
	C242,21.164,234.836,14,226,14z"/>
<g>
	<g>
		<rect x="346.917" y="82.667" fill="none" stroke="#FFFFFF" stroke-width="6" stroke-miterlimit="10" width="35.5" height="18"/>
		<rect x="398.417" y="82.667" fill="none" stroke="#FFFFFF" stroke-width="6" stroke-miterlimit="10" width="35.5" height="18"/>
		<line fill="none" stroke="#FFFFFF" stroke-width="6" stroke-miterlimit="10" x1="382.417" y1="91.667" x2="398.417" y2="91.667"/>
	</g>
	<path fill="none" stroke="#FFFFFF" stroke-width="6" stroke-miterlimit="10" d="M329.451,90.917
		c0-37.417,27.296-67.75,60.966-67.75c33.671,0,60.966,30.333,60.966,67.75"/>
</g>
<g>
	<path fill-rule="evenodd" clip-rule="evenodd" fill="#FFFFFF" d="M447.51,185.973c-3.1-2.238-11.263-0.674-12.118,1.375
		c39.678,4.322,20.55,28.816,25.048,61.873c0.849,6.244-3.233,18.758-10.277,22.299c-5.434,2.73-2.674,0.322-2.674,0.322
		s-0.216-17.402,1.218-27.549c2.705-19.154-8.327-38.701-30.946-34.311c-11.76,20.74-41.568-5.45-61.545-2.293
		c-13.997,3.753-24.719,21.914-24.719,35.094c0,15.525,26.004,24.939,3.473,30.986c-12.969-3.047-17.018-14.35-14.968-35.891
		c0.981-10.31-4.849-25.919-1.051-31.373c11.166-12.821,21.356-21.357,21.356-21.357c23.09-22.234,49.836-20.229,80.757-14.016
		c4.304,1.223,3.143,7.591,3.143,7.591C434.283,178.383,436.965,176.687,447.51,185.973z"/>
	<path fill="#231F20" d="M424.667,278.834c-3.726,0-8.972-0.238-12.81-1.365c-5.325-1.564-10.314-6.033-13.346-11.953
		c-3.244-6.338-5.105-12.078-5.406-16.656c-0.305-0.127-0.923-0.283-1.798-0.283c-0.823,0-1.44,0.135-1.792,0.258
		c-0.264,4.531-2.121,10.275-5.4,16.682c-3.033,5.922-8.022,10.389-13.347,11.953c-3.837,1.127-9.026,1.365-12.705,1.365
		c-4.917,0-10.294-0.418-14.383-1.115c-9.37-1.6-11.685-8.234-12.798-11.424c-0.812-2.332-2.985-11.291-2.574-18.488
		c0.015-0.039-0.092-0.184-0.576-0.4c-1.337-0.598-2.142-2.098-2.207-4.115c-0.061-1.887,0.562-4.456,2.52-5.488
		c7.256-3.826,21.008-5.828,30.84-5.828c1.26,0,2.457,0.033,3.558,0.098c9.96,0.582,17.652,2.686,22.266,6.086
		c0.104,0.035,0.315,0.084,0.622,0.084c0.277,0,0.561-0.04,0.795-0.113c1.344-0.414,3.255-0.652,5.246-0.652
		c1.214,0,3.516,0.094,5.295,0.722c0.219,0.077,0.377,0.114,0.483,0.114c0.171,0,0.428-0.119,0.641-0.236
		c4.511-3.334,12.25-5.41,22.395-6.004c1.102-0.064,2.298-0.098,3.558-0.098c9.833,0,23.584,2.002,30.84,5.829
		c1.958,1.032,2.581,3.603,2.52,5.489c-0.066,2.018-0.871,3.518-2.208,4.113c-0.484,0.217-0.591,0.361-0.592,0.363
		c0.413,6.965-1.521,15.9-2.396,18.459c-1.107,3.246-3.375,9.889-12.742,11.49c-4.084,0.697-9.503,1.115-14.495,1.115
		C424.668,278.834,424.668,278.834,424.667,278.834z"/>
	<path fill="#FFFFFF" d="M453.649,239.572c-7.918-4.175-23.95-6.055-33.348-5.504c-9.438,0.553-17.092,2.434-21.415,5.684
		c-1.182,0.689-1.925,0.67-2.886,0.332c-2.327-0.82-6.89-0.783-9.284-0.045c-0.992,0.309-2.268,0.273-3.049-0.162
		c-4.328-3.271-11.945-5.258-21.343-5.809s-25.43,1.329-33.349,5.504c-1.762,0.93-1.947,5.33-0.428,6.008
		c1.092,0.488,1.824,1.16,1.757,2.34c-0.38,6.65,1.614,15.273,2.447,17.662c1.068,3.061,3.009,8.756,11.265,10.166
		c7.023,1.197,19.551,1.752,26.188-0.199c4.809-1.412,9.343-5.504,12.131-10.945c3.41-6.662,5.145-12.369,5.211-16.621
		c0.568-1.832,7.02-1.982,7.514,0.188l0.011-0.027c0.146,4.273,1.888,9.949,5.221,16.461c2.786,5.441,7.32,9.533,12.129,10.945
		c6.64,1.951,19.393,1.396,26.406,0.199c8.244-1.41,10.142-7.105,11.187-10.166c0.815-2.389,2.688-11.012,2.307-17.662
		c-0.067-1.18,0.666-1.852,1.758-2.34C455.599,244.902,455.411,240.502,453.649,239.572z M379.164,262.982
		c-2.418,4.721-6.242,8.236-10.232,9.41c-6.092,1.789-17.028,1.904-23.521,0.797c-5.32-0.906-7.503-3.064-9.334-8.314
		c-1.818-5.203-2.385-15.984,0.054-19.52c3.903-5.661,14.219-8.697,26.253-7.994c10.202,0.598,17.936,3.557,20.455,7.311
		C384.529,247.197,383.232,255.033,379.164,262.982z M446.687,264.875c-1.523,4.463-3.81,7.383-9.271,8.314
		c-6.486,1.107-17.629,0.992-23.721-0.797c-3.99-1.174-7.815-4.689-10.23-9.41c-4.072-7.949-5.369-15.785-3.674-18.311
		c2.518-3.754,10.251-6.713,20.453-7.311c12.034-0.703,22.348,2.333,26.253,7.994C448.936,248.891,448.463,259.672,446.687,264.875z
		"/>
</g>
<path fill="#FFFFFF" d="M191.327,116.195c-0.718-1.049-1.767-1.716-3.033-1.93c-0.85-0.143-1.605-0.212-2.311-0.212
	c-0.906,0-1.729,0.118-2.518,0.356c0.161-1.481,0.327-2.899,0.487-4.266c0.491-4.182,0.916-7.792,0.945-11.283
	c0.127-15.188-5.41-29.207-15.593-39.475c-10.414-10.502-24.978-16.286-41.009-16.286c-16.031,0-30.594,5.784-41.008,16.286
	c-10.183,10.268-15.72,24.288-15.592,39.475c0.029,3.49,0.454,7.102,0.945,11.282c0.168,1.433,0.343,2.922,0.511,4.482
	c-0.979-0.387-1.991-0.571-3.135-0.571c-0.706,0-1.461,0.069-2.311,0.212c-1.267,0.214-2.315,0.881-3.033,1.93
	c-2.213,3.237-0.912,9.528,0.737,17.492c0.24,1.16,0.483,2.333,0.715,3.505c0.601,3.038,0.991,6.24,1.335,9.065
	c0.729,5.987,1.084,8.461,2.583,9.569c1.007,0.745,2.209,1.123,3.574,1.123c0,0,0,0,0.001,0c0.153,0,0.312-0.013,0.469-0.023
	c0.049,1.922,0.156,3.881,0.363,6.084c0.602,6.426,15.389,22.485,21.718,29.092c2.259,2.357,4.279,4.649,6.233,6.866
	c6.862,7.784,12.283,13.933,20.407,13.933h16.124c7.401,0,11.183-4.888,15.969-11.075c2.11-2.729,4.502-5.82,7.584-9.037
	c8.827-9.213,19.109-23.905,19.66-29.778c0.206-2.196,0.313-4.148,0.362-6.064c1.312-0.022,2.473-0.396,3.449-1.118
	c1.5-1.109,1.854-3.583,2.584-9.57c0.345-2.825,0.733-6.028,1.336-9.065c0.231-1.172,0.475-2.346,0.714-3.506
	C192.238,125.722,193.54,119.432,191.327,116.195z M74.218,142.912c-0.002,0.183-0.004,0.364-0.007,0.545
	c-0.004,0.36-0.009,0.713-0.014,1.06c-0.003,0.173-0.005,0.345-0.008,0.514c-0.005,0.34-0.011,0.672-0.017,1
	c-0.014,0.817-0.029,1.599-0.043,2.351c-0.007,0.356-0.014,0.706-0.02,1.051c-0.002,0.127-0.004,0.252-0.007,0.379
	c-0.004,0.225-0.008,0.449-0.012,0.67c-0.003,0.15-0.005,0.3-0.007,0.447c-0.003,0.192-0.006,0.383-0.009,0.57
	c-0.002,0.153-0.004,0.305-0.006,0.456c-0.002,0.19-0.004,0.379-0.006,0.567c-0.001,0.094-0.003,0.191-0.003,0.285
	c-0.154,0.019-0.301,0.027-0.441,0.027c0,0,0,0,0,0c-0.375,0-0.685-0.066-0.941-0.201c-0.411-0.967-0.808-4.226-1.13-6.872
	c-0.353-2.897-0.752-6.182-1.383-9.369c-0.234-1.183-0.479-2.368-0.722-3.54c-1.157-5.586-2.596-12.541-1.37-14.333
	c0.081-0.118,0.141-0.165,0.32-0.195c0.62-0.105,1.152-0.156,1.626-0.156c1.16,0,1.948,0.288,3.013,1.102
	c0.196,0.149,0.401,0.317,0.613,0.502c0.115,1.417,0.208,2.806,0.284,4.182c0.002,0.042,0.004,0.083,0.007,0.125
	c0.034,0.632,0.062,1.261,0.088,1.89c0.005,0.123,0.01,0.247,0.015,0.369c0.024,0.628,0.045,1.255,0.061,1.884
	c0,0.001,0,0.002,0,0.004c0.105,4.092,0.142,7.54,0.142,10.528C74.241,140.246,74.232,141.625,74.218,142.912z M90.211,62.283
	c9.635-9.716,23.161-15.068,38.085-15.068c14.926,0,28.451,5.352,38.086,15.068c9.403,9.482,14.518,22.46,14.398,36.542
	c-0.027,3.268-0.438,6.775-0.917,10.837c-0.274,2.34-0.565,4.824-0.819,7.534l-0.003,0.002l-0.048,0.543
	c-0.065,0.719-0.127,1.458-0.186,2.21h-1.333v-5.825h-42.42v5.825h-13.147v-5.825h-42.42v5.825h-1.702
	c-0.053-0.672-0.107-1.334-0.165-1.978l-0.011-0.127l-0.001,0c-0.268-2.966-0.583-5.66-0.88-8.186
	c-0.478-4.062-0.89-7.57-0.917-10.836C75.694,84.743,80.809,71.766,90.211,62.283z M173.359,118.244v15.305h-34.188v-15.305H173.359
	z M117.792,118.244v15.305H83.604v-15.305H117.792z M178.424,154.049c0.002,2.797-0.083,5.442-0.377,8.577
	c-0.143,1.521-1.753,5.328-5.845,11.455c-3.665,5.486-8.29,11.268-12.69,15.859c-3.232,3.374-5.694,6.557-7.867,9.366
	c-4.572,5.91-7.331,9.478-12.713,9.478h-16.124c-6.266,0-10.902-5.259-17.319-12.539c-1.981-2.247-4.03-4.571-6.349-6.99
	c-15.834-16.528-20.394-24.515-20.592-26.629c-0.388-4.136-0.412-7.421-0.354-11.324c0-0.018,0.001-0.034,0.001-0.052
	c0.004-0.267,0.009-0.537,0.013-0.811c0-0.05,0.001-0.099,0.002-0.149c0.004-0.253,0.009-0.511,0.014-0.771
	c0-0.05,0.001-0.098,0.002-0.148c0.006-0.299,0.011-0.602,0.018-0.91c0.012-0.606,0.023-1.231,0.036-1.88
	c0.005-0.324,0.012-0.654,0.017-0.99c0.014-0.84,0.027-1.719,0.037-2.646c0.014-1.298,0.022-2.688,0.022-4.196
	c-0.001-3.015-0.038-6.496-0.144-10.628c0-0.001,0-0.003,0-0.004c-0.017-0.678-0.041-1.337-0.065-1.988h1.34v11.538h42.42v-11.538
	h13.147v11.538h42.42v-11.538h0.971c-0.025,0.652-0.048,1.313-0.065,1.992c-0.242,9.445-0.126,15.486-0.032,20.341
	c0.021,1.113,0.042,2.149,0.056,3.145c0,0.046,0.001,0.093,0.002,0.139c0.003,0.207,0.005,0.412,0.008,0.615
	c0.001,0.084,0.001,0.167,0.002,0.25c0.002,0.175,0.003,0.35,0.005,0.521c0.001,0.254,0.003,0.507,0.003,0.757
	C178.424,153.941,178.424,153.995,178.424,154.049z M186.559,132.851c-0.242,1.173-0.487,2.358-0.722,3.541
	c-0.631,3.188-1.03,6.472-1.384,9.368c-0.322,2.647-0.718,5.906-1.129,6.873c-0.221,0.116-0.481,0.182-0.789,0.197
	c-0.003-0.346-0.008-0.694-0.012-1.048c0-0.009,0-0.018,0-0.026c-0.015-1.074-0.036-2.187-0.059-3.374
	c-0.093-4.813-0.208-10.803,0.031-20.158c0.018-0.672,0.04-1.345,0.066-2.02c0.005-0.105,0.009-0.211,0.013-0.316
	c0.027-0.668,0.061-1.339,0.097-2.014c0.004-0.062,0.007-0.123,0.011-0.185c0.081-1.458,0.185-2.931,0.312-4.438
	c1.052-0.8,1.837-1.083,2.988-1.083c0.474,0,1.005,0.051,1.626,0.156c0.179,0.03,0.239,0.077,0.319,0.195
	C189.154,120.311,187.716,127.264,186.559,132.851z"/>
</svg>
