<?xml version="1.0" encoding="utf-8"?>
<!-- Generator: Adobe Illustrator 16.0.0, SVG Export Plug-In . SVG Version: 6.00 Build 0)  -->
<!DOCTYPE svg PUBLIC "-//W3C//DTD SVG 1.1//EN" "http://www.w3.org/Graphics/SVG/1.1/DTD/svg11.dtd">
<svg version="1.1" id="Layer_1" xmlns="http://www.w3.org/2000/svg" xmlns:xlink="http://www.w3.org/1999/xlink" x="0px" y="0px"
	 width="256px" height="256px" viewBox="0 0 256 256" enable-background="new 0 0 256 256" xml:space="preserve">
<g>
	<rect x="139.171" y="118.244" width="34.188" height="15.305"/>
	<rect x="83.604" y="118.244" width="34.188" height="15.305"/>
	<path d="M178.445,126.129h-0.971v11.538h-42.42v-11.538h-13.147v11.538h-42.42v-11.538h-1.34c0.024,0.651,0.048,1.31,0.065,1.988
		c0,0.001,0,0.003,0,0.004c0.106,4.132,0.143,7.613,0.144,10.628c0,1.508-0.008,2.897-0.022,4.196
		c-0.01,0.927-0.023,1.806-0.037,2.646c-0.005,0.336-0.012,0.666-0.017,0.99c-0.013,0.649-0.024,1.274-0.036,1.88
		c-0.007,0.309-0.012,0.611-0.018,0.91c-0.001,0.05-0.002,0.098-0.002,0.148c-0.005,0.26-0.01,0.518-0.014,0.771
		c-0.001,0.05-0.002,0.099-0.002,0.149c-0.004,0.273-0.009,0.543-0.013,0.811c0,0.018-0.001,0.034-0.001,0.052
		c-0.058,3.903-0.034,7.188,0.354,11.324c0.198,2.114,4.758,10.101,20.592,26.629c2.319,2.419,4.368,4.743,6.349,6.99
		c6.417,7.28,11.053,12.539,17.319,12.539h16.124c5.383,0,8.141-3.568,12.713-9.478c2.174-2.81,4.635-5.992,7.867-9.367
		c4.4-4.59,9.025-10.373,12.69-15.858c4.092-6.127,5.702-9.935,5.845-11.455c0.294-3.135,0.379-5.78,0.377-8.577
		c0-0.054,0-0.107,0-0.16c0-0.25-0.002-0.503-0.003-0.757c-0.002-0.171-0.003-0.346-0.005-0.521
		c-0.001-0.084-0.001-0.166-0.002-0.25c-0.003-0.203-0.005-0.408-0.008-0.615c-0.002-0.046-0.002-0.094-0.002-0.139
		c-0.014-0.996-0.035-2.032-0.057-3.146c-0.094-4.854-0.209-10.896,0.032-20.341C178.396,127.442,178.42,126.781,178.445,126.129z"
		/>
	<path d="M74.099,128.222c-0.016-0.629-0.037-1.256-0.061-1.884c-0.005-0.122-0.01-0.246-0.015-0.369
		c-0.026-0.629-0.054-1.258-0.088-1.89c-0.003-0.042-0.005-0.083-0.007-0.125c-0.076-1.376-0.169-2.765-0.284-4.182
		c-0.212-0.185-0.417-0.353-0.613-0.502c-1.065-0.814-1.853-1.102-3.013-1.102c-0.474,0-1.006,0.051-1.626,0.156
		c-0.179,0.03-0.239,0.077-0.32,0.195c-1.226,1.792,0.213,8.747,1.37,14.333c0.243,1.172,0.488,2.357,0.722,3.541
		c0.631,3.187,1.03,6.472,1.383,9.368c0.322,2.646,0.719,5.905,1.13,6.872c0.256,0.135,0.566,0.201,0.941,0.201
		c0.14,0,0.287-0.008,0.441-0.027c0-0.094,0.002-0.19,0.003-0.285c0.002-0.188,0.004-0.377,0.006-0.566
		c0.002-0.15,0.004-0.303,0.006-0.456c0.003-0.187,0.006-0.378,0.009-0.569c0.002-0.147,0.004-0.298,0.007-0.447
		c0.004-0.222,0.008-0.445,0.012-0.67c0.003-0.127,0.005-0.252,0.007-0.379c0.006-0.346,0.013-0.695,0.02-1.052
		c0.014-0.752,0.029-1.534,0.043-2.351c0.006-0.328,0.012-0.66,0.017-1c0.003-0.17,0.005-0.342,0.008-0.514
		c0.005-0.348,0.01-0.701,0.014-1.061c0.003-0.182,0.005-0.361,0.007-0.545c0.014-1.287,0.023-2.666,0.023-4.158
		c0-2.988-0.037-6.436-0.142-10.528C74.099,128.224,74.099,128.223,74.099,128.222z"/>
	<path d="M187.607,118.324c-0.621-0.105-1.151-0.156-1.625-0.156c-1.151,0-1.937,0.283-2.988,1.083
		c-0.127,1.507-0.23,2.98-0.312,4.438c-0.004,0.062-0.007,0.123-0.011,0.185c-0.036,0.675-0.069,1.346-0.097,2.014
		c-0.004,0.105-0.008,0.211-0.014,0.316c-0.025,0.675-0.047,1.348-0.065,2.02c-0.239,9.355-0.124,15.344-0.031,20.158
		c0.022,1.187,0.044,2.3,0.06,3.374c0,0.008,0,0.018,0,0.026c0.004,0.354,0.009,0.702,0.012,1.048
		c0.308-0.016,0.568-0.081,0.789-0.197c0.41-0.967,0.807-4.226,1.129-6.873c0.354-2.896,0.753-6.18,1.384-9.367
		c0.235-1.184,0.479-2.369,0.722-3.541c1.157-5.587,2.596-12.541,1.369-14.333C187.848,118.401,187.787,118.354,187.607,118.324z"/>
	<path d="M128.296,47.215c-14.924,0-28.45,5.352-38.085,15.068c-9.402,9.483-14.517,22.46-14.4,36.541
		c0.027,3.266,0.439,6.774,0.917,10.836c0.297,2.526,0.612,5.22,0.88,8.186h0.001l0.011,0.127c0.058,0.644,0.112,1.306,0.165,1.978
		h1.702v-5.825h42.42v5.825h13.148v-5.825h42.42v5.825h1.332c0.06-0.752,0.121-1.491,0.187-2.21l0.048-0.543l0.003-0.002
		c0.254-2.71,0.545-5.194,0.819-7.534c0.479-4.062,0.89-7.569,0.916-10.837c0.121-14.082-4.994-27.06-14.397-36.542
		C156.747,52.567,143.223,47.215,128.296,47.215z"/>
	<path d="M226,14H30c-8.837,0-16,7.164-16,16v196c0,8.837,7.163,16,16,16h196c8.836,0,16-7.163,16-16V30
		C242,21.164,234.836,14,226,14z M190.589,133.688c-0.239,1.16-0.483,2.334-0.714,3.506c-0.604,3.037-0.991,6.24-1.336,9.065
		c-0.73,5.987-1.084,8.462-2.584,9.57c-0.977,0.722-2.137,1.096-3.449,1.118c-0.049,1.916-0.156,3.867-0.361,6.064
		c-0.552,5.872-10.834,20.564-19.66,29.777c-3.082,3.217-5.475,6.309-7.584,9.037c-4.787,6.188-8.568,11.074-15.969,11.074h-16.125
		c-8.124,0-13.545-6.148-20.407-13.933c-1.954-2.217-3.974-4.509-6.233-6.866c-6.329-6.606-21.116-22.666-21.718-29.092
		c-0.207-2.203-0.314-4.162-0.363-6.084c-0.157,0.01-0.316,0.023-0.469,0.023c-0.001,0-0.001,0-0.001,0
		c-1.365,0-2.567-0.379-3.574-1.123c-1.499-1.108-1.854-3.582-2.583-9.569c-0.344-2.825-0.734-6.026-1.335-9.065
		c-0.232-1.172-0.475-2.344-0.715-3.504c-1.649-7.964-2.95-14.255-0.737-17.493c0.718-1.049,1.766-1.716,3.033-1.93
		c0.85-0.143,1.605-0.212,2.311-0.212c1.144,0,2.156,0.184,3.135,0.571c-0.168-1.56-0.343-3.049-0.511-4.482
		c-0.491-4.18-0.916-7.792-0.945-11.282c-0.128-15.187,5.409-29.207,15.592-39.475c10.414-10.502,24.977-16.286,41.008-16.286
		c16.031,0,30.596,5.784,41.01,16.286c10.182,10.268,15.719,24.287,15.592,39.475c-0.028,3.491-0.453,7.101-0.944,11.283
		c-0.16,1.367-0.326,2.785-0.487,4.266c0.789-0.238,1.612-0.356,2.518-0.356c0.707,0,1.461,0.069,2.312,0.212
		c1.267,0.214,2.315,0.881,3.033,1.93C193.54,119.432,192.238,125.722,190.589,133.688z"/>
</g>
</svg>
